<svg width="36" height="37" viewBox="0 0 36 37" fill="none" xmlns="http://www.w3.org/2000/svg">
<path d="M1.5 18.7552C1.5 9.62035 8.8873 2.21509 18 2.21509C27.1127 2.21509 34.5 9.62035 34.5 18.7552C34.5 27.3368 27.9805 34.3919 19.6356 35.2151C19.6802 35.2072 19.7248 35.1988 19.7694 35.1898V23.5032H24.059L24.7009 18.5107H19.7694V15.3232C19.7694 13.8777 20.1696 12.8929 22.2376 12.8929L24.8746 12.8916V8.42644C24.4185 8.3654 22.8532 8.22968 21.0318 8.22968C17.2296 8.22968 14.6262 10.5561 14.6262 14.829V18.5107H10.3255V23.5032H14.6262V34.9493C7.13161 33.3883 1.5 26.731 1.5 18.7552Z" fill="#2DD3E3"/>
</svg>
