<svg width="35" height="35" viewBox="0 0 35 35" fill="none" xmlns="http://www.w3.org/2000/svg">
<path d="M1.4585 17.5389C1.4585 8.65781 8.6406 1.45825 17.5002 1.45825C26.3597 1.45825 33.5418 8.65781 33.5418 17.5389C33.5418 25.8821 27.2034 32.7413 19.0903 33.5416C19.1337 33.5339 19.1771 33.5258 19.2204 33.517V22.155H23.3909L24.0149 17.3012H19.2204V14.2023C19.2204 12.7969 19.6095 11.8395 21.62 11.8395L24.1839 11.8382V7.49707C23.7403 7.43772 22.2186 7.30577 20.4477 7.30577C16.7512 7.30577 14.2201 9.56756 14.2201 13.7218V17.3012H10.0389V22.155H14.2201V33.2832C6.93367 31.7655 1.4585 25.2932 1.4585 17.5389Z" fill="#1A1A1A"/>
</svg>
