<svg width="35" height="35" viewBox="0 0 35 35" fill="none" xmlns="http://www.w3.org/2000/svg">
<path d="M1.4585 17.539C1.4585 8.65794 8.6406 1.45837 17.5002 1.45837C26.3597 1.45837 33.5418 8.65794 33.5418 17.539C33.5418 25.8822 27.2034 32.7414 19.0903 33.5417C19.1337 33.5341 19.1771 33.5259 19.2204 33.5172V22.1551H23.3909L24.0149 17.3013H19.2204V14.2024C19.2204 12.797 19.6095 11.8396 21.62 11.8396L24.1839 11.8383V7.49719C23.7403 7.43784 22.2186 7.30589 20.4477 7.30589C16.7512 7.30589 14.2201 9.56768 14.2201 13.7219V17.3013H10.0389V22.1551H14.2201V33.2833C6.93367 31.7657 1.4585 25.2933 1.4585 17.539Z" fill="#1A1A1A"/>
</svg>
