<svg width="35" height="35" viewBox="0 0 35 35" fill="none" xmlns="http://www.w3.org/2000/svg">
<path d="M1.45837 17.5392C1.45837 8.65806 8.64047 1.4585 17.5 1.4585C26.3596 1.4585 33.5417 8.65806 33.5417 17.5392C33.5417 25.8824 27.2033 32.7416 19.0902 33.5418C19.1336 33.5342 19.1769 33.526 19.2202 33.5173V22.1552H23.3908L24.0148 17.3015H19.2202V14.2025C19.2202 12.7971 19.6093 11.8397 21.6199 11.8397L24.1837 11.8384V7.49731C23.7402 7.43796 22.2185 7.30601 20.4476 7.30601C16.7511 7.30601 14.22 9.56781 14.22 13.7221V17.3015H10.0388V22.1552H14.22V33.2834C6.93355 31.7658 1.45837 25.2934 1.45837 17.5392Z" fill="#1A1A1A"/>
</svg>
