<svg width="35" height="35" viewBox="0 0 35 35" fill="none" xmlns="http://www.w3.org/2000/svg">
<path d="M1.45837 17.5387C1.45837 8.65757 8.64047 1.45801 17.5 1.45801C26.3596 1.45801 33.5417 8.65757 33.5417 17.5387C33.5417 25.8819 27.2033 32.7411 19.0902 33.5413C19.1336 33.5337 19.1769 33.5255 19.2202 33.5168V22.1548H23.3908L24.0148 17.301H19.2202V14.202C19.2202 12.7966 19.6093 11.8392 21.6199 11.8392L24.1837 11.838V7.49682C23.7402 7.43748 22.2185 7.30552 20.4476 7.30552C16.7511 7.30552 14.22 9.56732 14.22 13.7216V17.301H10.0388V22.1548H14.22V33.2829C6.93355 31.7653 1.45837 25.2929 1.45837 17.5387Z" fill="#1A1A1A"/>
</svg>
