<svg width="35" height="35" viewBox="0 0 35 35" fill="none" xmlns="http://www.w3.org/2000/svg">
<path d="M1.45825 17.5389C1.45825 8.65781 8.64035 1.45825 17.4999 1.45825C26.3595 1.45825 33.5416 8.65781 33.5416 17.5389C33.5416 25.8821 27.2031 32.7413 19.09 33.5416C19.1335 33.5339 19.1768 33.5258 19.2201 33.517V22.155H23.3906L24.0147 17.3012H19.2201V14.2023C19.2201 12.7969 19.6092 11.8395 21.6198 11.8395L24.1836 11.8382V7.49707C23.7401 7.43772 22.2183 7.30577 20.4475 7.30577C16.751 7.30577 14.2198 9.56756 14.2198 13.7218V17.3012H10.0386V22.155H14.2198V33.2832C6.93343 31.7655 1.45825 25.2932 1.45825 17.5389Z" fill="#1A1A1A"/>
</svg>
