<svg width="35" height="35" viewBox="0 0 35 35" fill="none" xmlns="http://www.w3.org/2000/svg">
<path d="M1.45825 17.5392C1.45825 8.65806 8.64035 1.4585 17.4999 1.4585C26.3595 1.4585 33.5416 8.65806 33.5416 17.5392C33.5416 25.8824 27.2031 32.7416 19.09 33.5418C19.1335 33.5342 19.1768 33.526 19.2201 33.5173V22.1552H23.3906L24.0147 17.3015H19.2201V14.2025C19.2201 12.7971 19.6092 11.8397 21.6198 11.8397L24.1836 11.8384V7.49731C23.7401 7.43796 22.2183 7.30601 20.4475 7.30601C16.751 7.30601 14.2198 9.56781 14.2198 13.7221V17.3015H10.0386V22.1552H14.2198V33.2834C6.93343 31.7658 1.45825 25.2934 1.45825 17.5392Z" fill="#1A1A1A"/>
</svg>
