<svg width="35" height="35" viewBox="0 0 35 35" fill="none" xmlns="http://www.w3.org/2000/svg">
<path d="M1.45837 17.5389C1.45837 8.65781 8.64047 1.45825 17.5 1.45825C26.3596 1.45825 33.5417 8.65781 33.5417 17.5389C33.5417 25.8821 27.2033 32.7413 19.0902 33.5416C19.1336 33.5339 19.1769 33.5258 19.2202 33.517V22.155H23.3908L24.0148 17.3012H19.2202V14.2023C19.2202 12.7969 19.6093 11.8395 21.6199 11.8395L24.1837 11.8382V7.49707C23.7402 7.43772 22.2185 7.30577 20.4476 7.30577C16.7511 7.30577 14.22 9.56756 14.22 13.7218V17.3012H10.0388V22.155H14.22V33.2832C6.93355 31.7655 1.45837 25.2932 1.45837 17.5389Z" fill="#1A1A1A"/>
</svg>
