<svg width="35" height="35" viewBox="0 0 35 35" fill="none" xmlns="http://www.w3.org/2000/svg">
<path d="M1.45837 17.539C1.45837 8.65794 8.64047 1.45837 17.5 1.45837C26.3596 1.45837 33.5417 8.65794 33.5417 17.539C33.5417 25.8822 27.2033 32.7414 19.0902 33.5417C19.1336 33.5341 19.1769 33.5259 19.2202 33.5172V22.1551H23.3908L24.0148 17.3013H19.2202V14.2024C19.2202 12.797 19.6093 11.8396 21.6199 11.8396L24.1837 11.8383V7.49719C23.7402 7.43784 22.2185 7.30589 20.4476 7.30589C16.7511 7.30589 14.22 9.56768 14.22 13.7219V17.3013H10.0388V22.1551H14.22V33.2833C6.93355 31.7657 1.45837 25.2933 1.45837 17.539Z" fill="#1A1A1A"/>
</svg>
