<svg width="35" height="35" viewBox="0 0 35 35" fill="none" xmlns="http://www.w3.org/2000/svg">
<path d="M1.4585 17.5392C1.4585 8.65806 8.6406 1.4585 17.5002 1.4585C26.3597 1.4585 33.5418 8.65806 33.5418 17.5392C33.5418 25.8824 27.2034 32.7416 19.0903 33.5418C19.1337 33.5342 19.1771 33.526 19.2204 33.5173V22.1552H23.3909L24.0149 17.3015H19.2204V14.2025C19.2204 12.7971 19.6095 11.8397 21.62 11.8397L24.1839 11.8384V7.49731C23.7403 7.43796 22.2186 7.30601 20.4477 7.30601C16.7512 7.30601 14.2201 9.56781 14.2201 13.7221V17.3015H10.0389V22.1552H14.2201V33.2834C6.93367 31.7658 1.4585 25.2934 1.4585 17.5392Z" fill="#1A1A1A"/>
</svg>
