<svg width="35" height="35" viewBox="0 0 35 35" fill="none" xmlns="http://www.w3.org/2000/svg">
<path d="M17.7259 14.3233V19.6751C17.7259 20.2279 18.1737 20.6759 18.7266 20.6752C20.597 20.6727 24.6064 20.6678 26.5202 20.6678C25.1419 24.787 22.9994 27.0297 17.7259 27.0297C12.3888 27.0297 8.22328 22.763 8.22328 17.4993C8.22328 12.2368 12.3888 7.97012 17.7259 7.97012C20.5473 7.97012 22.3699 8.9484 24.0415 10.3115C25.3792 8.99213 25.2675 8.80347 28.6716 5.6325C25.7816 3.03874 21.9409 1.45825 17.7259 1.45825C8.74238 1.45825 1.45837 8.6398 1.45837 17.4993C1.45837 26.3588 8.74238 33.5416 17.7259 33.5416C31.1541 33.5416 34.4363 22.0109 33.3486 14.3233H17.7259" fill="#1A1A1A"/>
</svg>
