<svg width="35" height="35" viewBox="0 0 35 35" fill="none" xmlns="http://www.w3.org/2000/svg">
<path d="M17.726 14.3233V19.6751C17.726 20.2279 18.1739 20.6759 18.7267 20.6752C20.5971 20.6727 24.6065 20.6678 26.5204 20.6678C25.142 24.787 22.9996 27.0297 17.726 27.0297C12.389 27.0297 8.2234 22.763 8.2234 17.4993C8.2234 12.2368 12.389 7.97012 17.726 7.97012C20.5475 7.97012 22.37 8.9484 24.0416 10.3115C25.3793 8.99213 25.2676 8.80347 28.6717 5.6325C25.7817 3.03874 21.941 1.45825 17.726 1.45825C8.74251 1.45825 1.4585 8.6398 1.4585 17.4993C1.4585 26.3588 8.74251 33.5416 17.726 33.5416C31.1543 33.5416 34.4364 22.0109 33.3487 14.3233H17.726" fill="#1A1A1A"/>
</svg>
