<svg width="35" height="35" viewBox="0 0 35 35" fill="none" xmlns="http://www.w3.org/2000/svg">
<path d="M17.726 14.3234V19.6752C17.726 20.2281 18.1739 20.676 18.7267 20.6753C20.5971 20.6728 24.6065 20.6679 26.5204 20.6679C25.142 24.7872 22.9996 27.0298 17.726 27.0298C12.389 27.0298 8.2234 22.7631 8.2234 17.4994C8.2234 12.2369 12.389 7.97025 17.726 7.97025C20.5475 7.97025 22.37 8.94853 24.0416 10.3116C25.3793 8.99225 25.2676 8.8036 28.6717 5.63262C25.7817 3.03886 21.941 1.45837 17.726 1.45837C8.74251 1.45837 1.4585 8.63992 1.4585 17.4994C1.4585 26.3589 8.74251 33.5417 17.726 33.5417C31.1543 33.5417 34.4364 22.011 33.3487 14.3234H17.726" fill="#1A1A1A"/>
</svg>
