<svg width="35" height="35" viewBox="0 0 35 35" fill="none" xmlns="http://www.w3.org/2000/svg">
<path d="M17.7257 14.3233V19.6751C17.7257 20.2279 18.1736 20.6759 18.7264 20.6752C20.5968 20.6727 24.6062 20.6678 26.5201 20.6678C25.1418 24.787 22.9993 27.0297 17.7257 27.0297C12.3887 27.0297 8.22315 22.763 8.22315 17.4993C8.22315 12.2368 12.3887 7.97012 17.7257 7.97012C20.5472 7.97012 22.3698 8.9484 24.0413 10.3115C25.3791 8.99213 25.2674 8.80347 28.6714 5.6325C25.7814 3.03874 21.9408 1.45825 17.7257 1.45825C8.74226 1.45825 1.45825 8.6398 1.45825 17.4993C1.45825 26.3588 8.74226 33.5416 17.7257 33.5416C31.154 33.5416 34.4362 22.0109 33.3485 14.3233H17.7257" fill="#1A1A1A"/>
</svg>
