<svg width="35" height="35" viewBox="0 0 35 35" fill="none" xmlns="http://www.w3.org/2000/svg">
<path d="M17.7257 14.3236V19.6754C17.7257 20.2282 18.1736 20.6761 18.7264 20.6754C20.5968 20.673 24.6062 20.668 26.5201 20.668C25.1418 24.7873 22.9993 27.03 17.7257 27.03C12.3887 27.03 8.22315 22.7633 8.22315 17.4995C8.22315 12.2371 12.3887 7.97037 17.7257 7.97037C20.5472 7.97037 22.3698 8.94865 24.0413 10.3117C25.3791 8.99238 25.2674 8.80372 28.6714 5.63274C25.7814 3.03899 21.9408 1.4585 17.7257 1.4585C8.74226 1.4585 1.45825 8.64005 1.45825 17.4995C1.45825 26.359 8.74226 33.5418 17.7257 33.5418C31.154 33.5418 34.4362 22.0111 33.3485 14.3236H17.7257" fill="#1A1A1A"/>
</svg>
