<svg width="35" height="35" viewBox="0 0 35 35" fill="none" xmlns="http://www.w3.org/2000/svg">
<path d="M17.7259 14.3234V19.6752C17.7259 20.2281 18.1737 20.676 18.7266 20.6753C20.597 20.6728 24.6064 20.6679 26.5202 20.6679C25.1419 24.7872 22.9994 27.0298 17.7259 27.0298C12.3888 27.0298 8.22328 22.7631 8.22328 17.4994C8.22328 12.2369 12.3888 7.97025 17.7259 7.97025C20.5473 7.97025 22.3699 8.94853 24.0415 10.3116C25.3792 8.99225 25.2675 8.8036 28.6716 5.63262C25.7816 3.03886 21.9409 1.45837 17.7259 1.45837C8.74238 1.45837 1.45837 8.63992 1.45837 17.4994C1.45837 26.3589 8.74238 33.5417 17.7259 33.5417C31.1541 33.5417 34.4363 22.011 33.3486 14.3234H17.7259" fill="#1A1A1A"/>
</svg>
