<svg width="35" height="35" viewBox="0 0 35 35" fill="none" xmlns="http://www.w3.org/2000/svg">
<path d="M17.726 14.3236V19.6754C17.726 20.2282 18.1739 20.6761 18.7267 20.6754C20.5971 20.673 24.6065 20.668 26.5204 20.668C25.142 24.7873 22.9996 27.03 17.726 27.03C12.389 27.03 8.2234 22.7633 8.2234 17.4995C8.2234 12.2371 12.389 7.97037 17.726 7.97037C20.5475 7.97037 22.37 8.94865 24.0416 10.3117C25.3793 8.99238 25.2676 8.80372 28.6717 5.63274C25.7817 3.03899 21.941 1.4585 17.726 1.4585C8.74251 1.4585 1.4585 8.64005 1.4585 17.4995C1.4585 26.359 8.74251 33.5418 17.726 33.5418C31.1543 33.5418 34.4364 22.0111 33.3487 14.3236H17.726" fill="#1A1A1A"/>
</svg>
