<svg width="35" height="35" viewBox="0 0 35 35" fill="none" xmlns="http://www.w3.org/2000/svg">
<path d="M17.7259 14.3231V19.6749C17.7259 20.2277 18.1737 20.6757 18.7266 20.6749C20.597 20.6725 24.6064 20.6675 26.5202 20.6675C25.1419 24.7868 22.9994 27.0295 17.7259 27.0295C12.3888 27.0295 8.22328 22.7628 8.22328 17.4991C8.22328 12.2366 12.3888 7.96988 17.7259 7.96988C20.5473 7.96988 22.3699 8.94816 24.0415 10.3113C25.3792 8.99189 25.2675 8.80323 28.6716 5.63225C25.7816 3.0385 21.9409 1.45801 17.7259 1.45801C8.74238 1.45801 1.45837 8.63956 1.45837 17.4991C1.45837 26.3585 8.74238 33.5413 17.7259 33.5413C31.1541 33.5413 34.4363 22.0106 33.3486 14.3231H17.7259" fill="#1A1A1A"/>
</svg>
