<svg width="35" height="35" viewBox="0 0 35 35" fill="none" xmlns="http://www.w3.org/2000/svg">
<path d="M17.7259 14.3236V19.6754C17.7259 20.2282 18.1737 20.6761 18.7266 20.6754C20.597 20.673 24.6064 20.668 26.5202 20.668C25.1419 24.7873 22.9994 27.03 17.7259 27.03C12.3888 27.03 8.22328 22.7633 8.22328 17.4995C8.22328 12.2371 12.3888 7.97037 17.7259 7.97037C20.5473 7.97037 22.3699 8.94865 24.0415 10.3117C25.3792 8.99238 25.2675 8.80372 28.6716 5.63274C25.7816 3.03899 21.9409 1.4585 17.7259 1.4585C8.74238 1.4585 1.45837 8.64005 1.45837 17.4995C1.45837 26.359 8.74238 33.5418 17.7259 33.5418C31.1541 33.5418 34.4363 22.0111 33.3486 14.3236H17.7259" fill="#1A1A1A"/>
</svg>
