<svg width="33" height="33" viewBox="0 0 33 33" fill="none" xmlns="http://www.w3.org/2000/svg">
<path d="M16.726 13.3236V18.6754C16.726 19.2282 17.1739 19.6761 17.7267 19.6754C19.5971 19.673 23.6065 19.668 25.5204 19.668C24.142 23.7873 21.9996 26.03 16.726 26.03C11.389 26.03 7.2234 21.7633 7.2234 16.4995C7.2234 11.2371 11.389 6.97037 16.726 6.97037C19.5475 6.97037 21.37 7.94865 23.0416 9.31174C24.3793 7.99238 24.2676 7.80372 27.6717 4.63274C24.7817 2.03899 20.941 0.458496 16.726 0.458496C7.74251 0.458496 0.458496 7.64005 0.458496 16.4995C0.458496 25.359 7.74251 32.5418 16.726 32.5418C30.1543 32.5418 33.4364 21.0111 32.3487 13.3236H16.726" fill="#1A1A1A"/>
</svg>
