<svg width="33" height="33" viewBox="0 0 33 33" fill="none" xmlns="http://www.w3.org/2000/svg">
<path d="M16.726 13.3234V18.6752C16.726 19.2281 17.1739 19.676 17.7267 19.6753C19.5971 19.6728 23.6065 19.6679 25.5204 19.6679C24.142 23.7872 21.9996 26.0298 16.726 26.0298C11.389 26.0298 7.2234 21.7631 7.2234 16.4994C7.2234 11.2369 11.389 6.97025 16.726 6.97025C19.5475 6.97025 21.37 7.94853 23.0416 9.31162C24.3793 7.99225 24.2676 7.8036 27.6717 4.63262C24.7817 2.03886 20.941 0.458374 16.726 0.458374C7.74251 0.458374 0.458496 7.63992 0.458496 16.4994C0.458496 25.3589 7.74251 32.5417 16.726 32.5417C30.1543 32.5417 33.4364 21.011 32.3487 13.3234H16.726" fill="#1A1A1A"/>
</svg>
