<svg width="33" height="33" viewBox="0 0 33 33" fill="none" xmlns="http://www.w3.org/2000/svg">
<path d="M16.7259 13.3231V18.6749C16.7259 19.2277 17.1737 19.6757 17.7266 19.6749C19.597 19.6725 23.6064 19.6675 25.5202 19.6675C24.1419 23.7868 21.9994 26.0295 16.7259 26.0295C11.3888 26.0295 7.22328 21.7628 7.22328 16.4991C7.22328 11.2366 11.3888 6.96988 16.7259 6.96988C19.5473 6.96988 21.3699 7.94816 23.0415 9.31125C24.3792 7.99189 24.2675 7.80323 27.6716 4.63225C24.7816 2.0385 20.9409 0.458008 16.7259 0.458008C7.74238 0.458008 0.458374 7.63956 0.458374 16.4991C0.458374 25.3585 7.74238 32.5413 16.7259 32.5413C30.1541 32.5413 33.4363 21.0106 32.3486 13.3231H16.7259" fill="#1A1A1A"/>
</svg>
