<svg width="33" height="33" viewBox="0 0 33 33" fill="none" xmlns="http://www.w3.org/2000/svg">
<path d="M16.7257 13.3233V18.6751C16.7257 19.2279 17.1736 19.6759 17.7264 19.6752C19.5968 19.6727 23.6062 19.6678 25.5201 19.6678C24.1418 23.787 21.9993 26.0297 16.7257 26.0297C11.3887 26.0297 7.22315 21.763 7.22315 16.4993C7.22315 11.2368 11.3887 6.97012 16.7257 6.97012C19.5472 6.97012 21.3698 7.9484 23.0413 9.3115C24.3791 7.99213 24.2674 7.80347 27.6714 4.6325C24.7814 2.03874 20.9408 0.458252 16.7257 0.458252C7.74226 0.458252 0.458252 7.6398 0.458252 16.4993C0.458252 25.3588 7.74226 32.5416 16.7257 32.5416C30.154 32.5416 33.4362 21.0109 32.3485 13.3233H16.7257" fill="#1A1A1A"/>
</svg>
