<svg width="33" height="33" viewBox="0 0 33 33" fill="none" xmlns="http://www.w3.org/2000/svg">
<path d="M16.7259 13.3233V18.6751C16.7259 19.2279 17.1737 19.6759 17.7266 19.6752C19.597 19.6727 23.6064 19.6678 25.5202 19.6678C24.1419 23.787 21.9994 26.0297 16.7259 26.0297C11.3888 26.0297 7.22328 21.763 7.22328 16.4993C7.22328 11.2368 11.3888 6.97012 16.7259 6.97012C19.5473 6.97012 21.3699 7.9484 23.0415 9.3115C24.3792 7.99213 24.2675 7.80347 27.6716 4.6325C24.7816 2.03874 20.9409 0.458252 16.7259 0.458252C7.74238 0.458252 0.458374 7.6398 0.458374 16.4993C0.458374 25.3588 7.74238 32.5416 16.7259 32.5416C30.1541 32.5416 33.4363 21.0109 32.3486 13.3233H16.7259" fill="#1A1A1A"/>
</svg>
