<svg width="33" height="33" viewBox="0 0 33 33" fill="none" xmlns="http://www.w3.org/2000/svg">
<path d="M16.7259 13.3234V18.6752C16.7259 19.2281 17.1737 19.676 17.7266 19.6753C19.597 19.6728 23.6064 19.6679 25.5202 19.6679C24.1419 23.7872 21.9994 26.0298 16.7259 26.0298C11.3888 26.0298 7.22328 21.7631 7.22328 16.4994C7.22328 11.2369 11.3888 6.97025 16.7259 6.97025C19.5473 6.97025 21.3699 7.94853 23.0415 9.31162C24.3792 7.99225 24.2675 7.8036 27.6716 4.63262C24.7816 2.03886 20.9409 0.458374 16.7259 0.458374C7.74238 0.458374 0.458374 7.63992 0.458374 16.4994C0.458374 25.3589 7.74238 32.5417 16.7259 32.5417C30.1541 32.5417 33.4363 21.011 32.3486 13.3234H16.7259" fill="#1A1A1A"/>
</svg>
