<svg width="33" height="33" viewBox="0 0 33 33" fill="none" xmlns="http://www.w3.org/2000/svg">
<path d="M16.7257 13.3234V18.6752C16.7257 19.2281 17.1736 19.676 17.7264 19.6753C19.5968 19.6728 23.6062 19.6679 25.5201 19.6679C24.1418 23.7872 21.9993 26.0298 16.7257 26.0298C11.3887 26.0298 7.22315 21.7631 7.22315 16.4994C7.22315 11.2369 11.3887 6.97025 16.7257 6.97025C19.5472 6.97025 21.3698 7.94853 23.0413 9.31162C24.3791 7.99225 24.2674 7.8036 27.6714 4.63262C24.7814 2.03886 20.9408 0.458374 16.7257 0.458374C7.74226 0.458374 0.458252 7.63992 0.458252 16.4994C0.458252 25.3589 7.74226 32.5417 16.7257 32.5417C30.154 32.5417 33.4362 21.011 32.3485 13.3234H16.7257" fill="#1A1A1A"/>
</svg>
